<svg xmlns="http://www.w3.org/2000/svg" viewBox="0 0 420 420" fill="none">
  <rect width="420" height="420" rx="56" fill="#111827" />
  <rect x="48" y="72" width="324" height="12" rx="6" fill="#1F2937" />
  <rect x="48" y="100" width="220" height="12" rx="6" fill="#1F2937" />
  <rect x="48" y="128" width="280" height="12" rx="6" fill="#8B5CF6" fill-opacity="0.55" />
  <rect x="48" y="168" width="140" height="88" rx="16" fill="#0F172A" stroke="#1F2937" stroke-width="2" />
  <rect x="204" y="168" width="168" height="40" rx="12" fill="#0F172A" stroke="#1F2937" stroke-width="2" />
  <rect x="204" y="216" width="168" height="40" rx="12" fill="#0F172A" stroke="#1F2937" stroke-width="2" />
  <circle cx="118" cy="212" r="22" fill="#8B5CF6" fill-opacity="0.25" />
  <circle cx="118" cy="212" r="10" fill="#8B5CF6" />
  <path d="M160 212H188" stroke="#06B6D4" stroke-width="3" stroke-linecap="round" />
  <circle cx="200" cy="212" r="6" fill="#06B6D4" />
  <path d="M212 212H240" stroke="#64748B" stroke-width="2" stroke-linecap="round" stroke-dasharray="4 6" />
  <circle cx="288" cy="188" r="8" fill="#06B6D4" />
  <circle cx="336" cy="236" r="8" fill="#8B5CF6" />
  <path d="M296 188L328 236" stroke="#334155" stroke-width="2" />
  <rect x="48" y="280" width="324" height="72" rx="16" fill="#0F172A" stroke="#1F2937" stroke-width="2" />
  <path d="M72 316H120M72 332H200" stroke="#334155" stroke-width="8" stroke-linecap="round" />
  <rect x="240" y="304" width="108" height="24" rx="12" fill="#8B5CF6" fill-opacity="0.35" />
  <circle cx="304" cy="84" r="28" fill="#8B5CF6" fill-opacity="0.9" />
  <circle cx="115" cy="98" r="20" fill="#06B6D4" fill-opacity="0.85" />
</svg>
